<?xml version="1.0" encoding="UTF-8"?><svg id="Réteg_1" xmlns="http://www.w3.org/2000/svg" viewBox="0 0 695 890"><defs><style>.cls-1{fill:#fff;}</style></defs><path class="cls-1" d="m565.48,581.58c.54.39,1.76.05,2.6-.23.61-.2,1.14-.76,1.6-1.25,6.66-7.22,13.32-14.45,19.93-21.72.66-.73,1.03-1.73,1.35-2.3-.04-2.2-1.31-2.58-2.68-2.61-2.82-.06-5.64-.06-8.46,0-2.42.06-4.12,1.16-5.1,3.48-1.68,3.98-3.5,7.91-5.24,11.87-1.49,3.39-3.03,6.77-4.37,10.22-.28.73-.12,2.16.38,2.52Z"/><path class="cls-1" d="m481.67,473.46c-20.47,0-39.27,6.17-54.1,16.47-6.7-7.92-14.89-14.79-24.19-20.29-.19-6.79-.07-15.02.79-24.15,2.35-24.99,19.32-33.95,33-60.82,13.66-26.88,8.95-78.72,9.42-104.65.48-25.93,7.78-34.4,7.78-34.4,0,0,3.98-2.29,10.61,0,13.07,4.52,1.79,13.52,2.96,16.12,1.18,2.59,7.62-2.38,6.44,5.4-1.18,7.78-13.66,25.98-9.18,25.75,4.48-.24,10.24-8.93,14.49-10.58,4.25-1.65,2.75,5.79,5.12,8.63,2.35,2.83,5.4-11.84,8.22-18.2,2.83-6.37,2.48-20.52,11.09-19.09,5.4.9,25.58-27.32,22.34-32.29-7.67-11.75-53.85-48.07-71.61-61.52,0,0-14.34-3-15.21-4.68h-.06c-1.42-6.03-4.12-12.75-7.76-16.95-50.56-67.27-113.12-59-138.64-39.15-25.22,19.61-36.99,65.41-5.36,89.61-12.31-30.96-7.58-67.26,28.06-77.31,40.69-11.47,72.13,16.67,85.73,43.79h-.01c1.05,3.79,1.4,6.1,1.4,6.1,0,0-24.05-9.9-24.99-3.78-.95,6.13,12.27,21.69,16.51,49.5,12.42,81.46-85.35,104.42-149.44,108.19-8.01.47-26.41,11.78-28.28,21.92-1.89,10.14,29.22-8.25,24.03,3.06-5.18,11.31-6.12,30.17,11.79,55.64,17.91,25.44,11.31,35.81,8.01,38.17-3.18,2.28,11.54,49.48,12.65,53.04-6.87,7.43-12.4,15.89-16.22,25.08-15.13-11.18-34.73-17.94-56.16-17.94-28.82,0-54.34,12.21-70.09,30.99h433.17c-11.39-29.99-43.92-51.65-82.3-51.65Zm-83.63-70.28s-8.25,27.33-14.6,40.54c-2.87,5.93-4.06,11.34-4.51,15.5-1.13-.32-2.27-.61-3.41-.89.91-4.44,3.5-17.04,5.79-27.34,2.83-12.74,16.73-27.8,16.73-27.8Zm-113.14,33.47c4.95-14.14.47-28.28.47-28.28,0,0,6.83,4.71,10.38,12.73,3.54,8,1.88,17.44-.94,24.74-1.37,3.55,1.96,12.45,5.76,20.69-3.3,1.67-6.48,3.51-9.52,5.5-9.75-15.77-10.9-21.76-6.15-35.37Zm32.85,23.01c-.68-1.29-1.29-2.49-1.73-3.46-2.7-5.89.94-27.58,8.02-41.02,7.07-13.44,35.35-17.44,43.13-12.26,7.78,5.18,4.72,20.76-3.3,32.06-5.44,7.69-6.97,15.89-7.39,20.38-2.43-.16-4.88-.27-7.36-.27-10.97,0-21.52,1.61-31.37,4.57Z"/><path class="cls-1" d="m189.21,641c7.24-6.24,8.96-18.03,3.61-25.91-4.1-6.05-10.39-8.25-17.16-9.54-.82-.15-1.62-.37-2.43-.56.03-.22.05-.44.08-.66.44-.12.87-.28,1.31-.37,4.96-1.02,9.7-2.6,13.82-5.66,6.63-4.93,8.76-10.97,6.38-18.86-1.85-6.15-6.88-8.98-12.69-10.66-6.54-1.89-13.24-1.31-19.9-1.3-5.91,0-11.83.08-17.74.05-3.36-.02-6.74-.42-10.09-.24-3.06.16-4.06,2.27-2.25,4.67,2.2,2.91,2.12,5.92,1.44,9.21-.92,4.44-1.68,8.91-2.49,13.38-1.38,7.57-2.75,15.15-4.11,22.72-1.13,6.29-2.28,12.58-3.36,18.88-.68,3.98-1.38,7.91-5.09,10.4-.28.19-.5.47-.72.73-1.36,1.63-.72,3.42,1.4,3.77.81.14,1.65.12,2.47.1,3.71-.11,7.42-.27,11.13-.38,11.27-.33,22.57,1.12,33.82-.5,8.29-1.2,16.05-3.65,22.56-9.27Zm-37.7-45.72c.49-3.12,1.13-6.21,1.71-9.32.39-2.09.78-4.19,1.19-6.27.7-3.54,3.3-5.77,6.92-5.93,3.53-.16,7-.09,10.13,1.96,2.26,1.48,3.67,3.51,4.31,6.06,2.06,8.29-3.19,17.09-11.47,19.21-1.92.49-3.9.72-5.42.99-1.44-.14-2.42-.1-3.34-.34-3.22-.83-4.58-2.92-4.04-6.37Zm-2.65,49.1c-2.99-.26-5.01-2.6-4.87-5.65.12-2.73.63-5.46,1.11-8.16.87-4.94,1.98-9.84,2.74-14.8.89-5.81,4.34-8.24,10.74-7.88,1.91.11,3.87.29,5.71.8,6.83,1.87,10.17,6.73,10.22,14.58.07,10.63-6.83,19.23-17.24,21.07-2.72.48-5.62.3-8.4.05Z"/><path class="cls-1" d="m559.87,651.9c19.21-4.62,31.48-23.87,27.35-43.16-1.43-6.67-4.95-12.08-10.9-15.62-8.75-5.2-18.1-5.46-27.72-3.12-16.08,3.91-28.61,18.88-28.07,35.79v1.03c-.01,11.61,5.94,20.41,16.8,24.41,7.39,2.72,14.95,2.5,22.54.68Zm-14.83-51.76c3.93-6.36,11.02-6.73,15.43-.7,1.37,1.86,2.6,3.94,3.39,6.1,3.57,9.83,4.75,19.91,2.19,30.17-.6,2.41-1.72,4.82-3.11,6.88-3.46,5.13-9.43,5.57-13.8,1.22-3.65-3.63-5.4-8.32-6.49-13.15-1-4.4-1.36-8.95-1.74-11.53.22-7.92.91-13.77,4.14-18.99Z"/><path class="cls-1" d="m428.75,631.22c5.43-1.47,10.92-2.77,16.23-4.61,6.85-2.38,13.31-5.57,18.47-10.93,7.81-8.11,6.79-22.12-6.55-25.72-9.42-2.55-18.64-1.61-27.36,2.49-14.15,6.66-22.33,17.61-22.85,29.69-.12,12.81,3.16,19.98,10.27,25.38,10.49,7.96,30.3,8.16,41-2.67,4.59-4.65,7.49-10.17,7.6-16.85.01-.79-.63-2.13-1.18-2.26-.89-.2-2.29.09-2.9.72-.96.99-1.56,2.4-2.11,3.71-2.78,6.63-7.01,11.61-14.36,13.32-7.66,1.77-15.5-2.89-17.27-10.31-.25-1.05-.23-1.63,1-1.96Zm-2.05-5.66c.47-3.23.7-5.94,1.27-8.57,1.34-6.16,3.48-12.01,7.36-17.09,1.83-2.39,4-4.35,7.06-5.06,3.36-.78,6.09.61,7.1,3.94,1.64,5.46.03,10.41-3.15,14.77-4.66,6.4-11.47,9.56-19.64,12Z"/><path class="cls-1" d="m255.52,589.91c-9.36-2.46-18.51-1.54-27.16,2.52-14.16,6.64-22.33,17.61-22.96,31.16.01,12.33,3.92,20.05,12.39,25.28,5.84,3.61,12.3,4.59,19.02,4.28,9.23-.43,16.97-3.96,22.59-11.41,3.06-4.05,5.11-8.65,4.94-13.91-.03-.75-.6-1.95-1.15-2.09-.84-.22-2.18-.01-2.75.56-.97.99-1.65,2.34-2.19,3.65-2.77,6.71-6.98,11.79-14.42,13.53-7.67,1.79-15.49-2.85-17.29-10.27-.25-1.03-.31-1.64.94-1.98,5.43-1.47,10.92-2.78,16.23-4.61,6.79-2.34,13.19-5.51,18.34-10.76,8.13-8.29,6.91-22.41-6.53-25.95Zm-11.87,25.44c-4.72,5.24-10.82,8-18.17,10.21.45-3.13.68-5.71,1.2-8.22,1.29-6.18,3.34-12.09,7.26-17.12,1.36-1.75,3.1-3.39,5.01-4.49,4.91-2.82,9.56-.15,9.89,5.51.31,5.43-1.57,10.1-5.19,14.11Z"/><path class="cls-1" d="m315.78,602.74c-2.01,2.87-1.24,6.75,1.62,8.5,2.58,1.57,6.76,1.38,9.2-.43,4.91-3.64,5.51-11.33,1.28-16.19-2.78-3.19-6.35-4.98-10.37-5.99-6.4-1.6-12.86-1.42-19.21.1-6.28,1.51-11.92,4.31-15.73,9.84-4.51,6.56-5.01,16.96,3.29,22.26,3.51,2.24,7.36,3.97,11.09,5.87,4.16,2.12,8.56,3.84,12.48,6.34,4.94,3.16,4.79,8.2.03,11.64-4.62,3.34-9.89,4.17-15.33,3.18-2.76-.5-5.58-1.52-7.98-2.96-2.35-1.41-2.27-3.49-.49-5.64.74-.9,1.58-1.73,2.26-2.68,1.53-2.15,2.05-4.49.94-7.01-1.1-2.49-3.19-3.48-5.76-3.69-4.74-.38-9.21,2.78-10.59,7.48-1.92,6.53.84,12.68,7.19,16.05,5.75,3.05,11.94,4.01,18.41,4.11,3.41-.39,6.86-.54,10.21-1.21,6.75-1.34,12.79-4.15,17.31-9.61,6.04-7.28,6.7-20.84-5.48-26.13-2.02-.88-4-1.84-6.01-2.73-4.83-2.16-9.79-4.05-14.46-6.52-5.66-2.99-5.6-9.1.03-12.12,5.51-2.96,11.33-3.16,17.14-.87,2.87,1.13,3.25,3.41,1.22,5.75-.76.88-1.62,1.7-2.29,2.65Z"/><path class="cls-1" d="m512.31,642.47c1.64-4.29,2.28-8.77,1.94-13.36-.1-1.28-.54-2.42-2.22-2.45-1.59-.02-2.41.81-2.81,2.21-.11.39-.13.81-.17,1.22-.25,2.12-.4,4.25-.76,6.35-.44,2.54-1.36,4.92-3.37,6.69-1.44,1.27-3.1,1.78-4.97,1.1-1.85-.68-2.58-2.23-2.73-4.03-.11-1.36-.12-2.77.11-4.11,1.69-9.75,3.45-19.49,5.21-29.22,1.62-8.92,3.14-17.87,4.93-26.76,1.33-6.58,1.67-13.38,4.34-19.68.35-.82.27-2.23-.24-2.87-.39-.49-1.82-.44-2.69-.22-2.06.52-4.03,1.35-6.08,1.92-5.22,1.47-10.49,2.78-15.68,4.37-1.07.33-2.35,1.49-2.59,2.49-.19.78.91,2.12,1.75,2.84,1.46,1.26,2.48,2.57,2.11,4.6-.53,2.9-1.07,5.81-1.6,8.71-1.15,6.29-2.3,12.57-3.45,18.86-1.35,7.36-2.75,14.72-4.05,22.09-.79,4.46-1.46,8.94-2.18,13.41.13.02.27.04.4.06,0,1.17-.11,2.35.02,3.51.55,5.14,2.85,9.12,7.73,11.32,3.89,1.76,8.04,1.96,12.15,1.59,6.95-.63,12.29-3.82,14.9-10.63Z"/><path class="cls-1" d="m394.8,601.7c2-2.45,4.04-4.89,5.79-7.52,1.55-2.33.68-3.75-2.09-3.96-.89-.07-1.79-.12-2.68-.11-8.95.03-17.91.19-26.86.06-4.24-.06-8.52-.41-12.69-1.13-3.51-.6-4.43-.38-5.95,2.88-2.3,4.91-4.74,9.76-7.11,14.64-.39.8-.88,1.58-1.11,2.43-.51,1.9.44,2.94,2.3,2.32,1.08-.36,2.05-1.3,2.88-2.16,3.15-3.26,5.93-6.94,9.38-9.81,5.87-4.88,13.13-3.44,19.97-3.68.12.18.23.37.35.55-.52.68-1.02,1.39-1.56,2.05-12.7,15.67-25.41,31.33-38.1,47.02-1.01,1.25-2.53,2.52-1.66,4.35.88,1.85,2.81,1.39,4.42,1.38,11.13-.07,22.27-.31,33.4-.15,3.37.05,6.76,1.01,10.06,1.88,3.59.94,4.76.45,6.17-3.04,1.54-3.83,3.16-7.62,4.89-11.37,1.03-2.24,2.48-4.3,3.45-6.57.35-.81.18-2.43-.39-2.87-.59-.47-2-.15-2.95.15-.64.21-1.15.94-1.64,1.51-1.42,1.68-2.76,3.44-4.21,5.09-3.96,4.51-8.21,8.8-14.55,9.39-4.71.44-9.49.14-14.23.15-.1,0-.2-.16-.43-.36.27-.42.5-.89.83-1.28,11.44-13.95,22.89-27.88,34.32-41.84Z"/><path class="cls-1" d="m433.65,581.52c4.03-1.34,8.06-2.69,12.08-4.05,5.72-1.94,11.44-3.85,17.14-5.85,2.9-1.02,3.49-2.56,2.03-5.23-1.54-2.84-3.14-5.64-4.79-8.41-1.08-1.81-2.54-2.14-4.39-1.11-.72.4-1.38.91-2.01,1.44-6.65,5.54-13.31,11.07-19.91,16.67-1.4,1.19-2.7,2.57-3.73,4.08-1.03,1.51-.08,2.85,1.97,2.83.4-.09,1.02-.18,1.61-.37Z"/><path class="cls-1" d="m566.91,554.63c-.29-.65-1.67-.99-2.61-1.13-1.28-.19-2.61-.05-3.91-.05s-2.48,0-3.71,0c-2.83-.01-4.75,1.19-5.92,3.89-2.88,6.61-5.94,13.14-8.86,19.73-.64,1.45-1.86,3.38-.3,4.53,1.68,1.24,3.19-.45,4.36-1.69,5.32-5.65,10.59-11.34,15.87-17.04,1.59-1.71,3.23-3.39,4.6-5.27.55-.76.84-2.19.49-2.97Z"/><path class="cls-1" d="m270.83,826.22c-2.96-.06-5.52-1.06-7.19-3.42-1.73-2.45-3.41-5.07-4.43-7.86-2.97-8.06-25.22-73.99-28.01-82.12-2.12-6.16-4.16-12.36-6.53-18.43-1.22-3.12-3.35-5.79-6.78-6.8-1.57-.46-3.31-.36-5.2-.54.36-.45.55-.8.84-1.05,6.42-5.72,12.83-11.46,19.3-17.12,3.47-3.03,6.91-6.12,10.64-8.79,2.08-1.49,4.8-2.04,7.07-3.29.84-.46,1.23-1.72,1.83-2.61-.89-.47-1.77-1.33-2.67-1.34-4.12-.04-8.25.22-12.38.24-2.75.02-5.5-.21-8.25-.3-1.31-.04-2.56.23-2.96,1.7-.41,1.49.61,2.2,1.76,2.88,3.66,2.14,3.75,3.36.61,6.35-.4.38-.8.76-1.21,1.12-8.96,7.94-17.91,15.89-26.87,23.83-1.41,1.25-2.86,2.47-4.29,3.7-.15-.09-.3-.18-.44-.26.06-.64.08-1.29.18-1.92,1.31-7.59,2.67-15.17,3.93-22.76.67-4.03,1.8-7.72,5.23-10.4.74-.58,1.24-2.1,1.03-3-.14-.59-1.74-1.17-2.69-1.18-4.54-.02-9.08.23-13.62.25-2.96.02-5.92-.33-8.87-.24-1.09.03-2.65.56-3.11,1.36-.43.77-.06,2.46.57,3.28,1.99,2.57,1.95,5.32,1.41,8.24-1.6,8.65-3.22,17.29-4.78,25.94-1.86,10.35-3.65,20.72-5.5,31.07-.64,3.6-1.78,6.88-5,9.15-.76.53-1.44,2.15-1.17,2.91.27.75,1.79,1.4,2.79,1.45,2.81.13,5.64-.15,8.45-.14,4.75.02,9.49.23,14.24.14,1.06-.02,2.52-.7,3.03-1.54.42-.69.04-2.36-.58-3.09-2.19-2.57-2.11-5.36-1.51-8.37.9-4.52,2.05-9.02,2.48-13.59.45-4.71,2.84-7.9,6.41-10.51,2.39-1.75,4.38-1.41,5.91,1.11.78,1.28,1.43,2.67,1.92,4.09,4.14,11.95,27.83,81.66,32,93.6,1.73,4.94,4.23,9.48,8.74,12.46,6.38,4.21,13.32,4.34,20.41,2.26,1.67-.49,3.33-1.37,4.69-2.45.74-.59,1.12-1.99,1.09-3-.01-.38-1.64-1-2.53-1.01Z"/><path class="cls-1" d="m396.18,749.91c.98-2.67,1.44-5.58,1.78-8.43.32-2.63-.69-4.07-2.28-4.18-1.81-.12-2.62.99-2.9,3.93-.12,1.23-.18,2.48-.46,3.68-.26,1.12-.66,2.25-1.22,3.25-.68,1.2-1.78,2.03-3.26,1.52-1.39-.47-1.69-1.69-1.62-3.02.03-.62,0-1.25.12-1.85,1.1-5.95,2.28-11.88,3.34-17.84.91-5.13,1.99-10.27,2.45-15.45.69-7.75-3.78-14.46-10.97-16.48-8.05-2.26-15.7-1.03-22.53,3.97-2.12,1.56-3.99,3.46-6.49,5.66.3-1.78.4-3.01.74-4.18.43-1.45,1.07-2.82,1.6-4.24.84-2.27-.05-3.37-2.41-2.94-.47.09-.92.27-1.38.41-4.72,1.49-9.43,2.99-14.15,4.46-2.16.67-4.41,1.11-6.52,1.93-2.28.89-2.65,3.25-.68,4.46,2.98,1.83,3.23,4.35,2.47,7.32-.19.73-.35,1.47-.48,2.22-1.8,9.94-3.62,19.88-5.38,29.83-.56,3.17-1.22,6.16-4.37,8-.85.5-1.13,1.95-1.68,2.97,1.04.48,2.08,1.36,3.13,1.38,7.22.12,14.44.13,21.66,0,1.19-.02,2.82-.66,3.4-1.56.38-.59-.54-2.31-1.24-3.26-1.12-1.52-1.7-2.89-1.3-4.91,1.94-9.64,3.57-19.34,5.52-28.97,1.41-6.99,5.76-11.84,12.48-13.83,5.77-1.71,9.3,1.51,8.71,7.46-.73,7.29-2.54,14.47-3.83,21.71-.76,4.26-1.69,8.52-2.04,12.82-.53,6.46,2.91,10.91,9.23,12.18,2.53.51,5.21.74,7.78.53,5.75-.47,10.64-2.71,12.77-8.53Z"/><path class="cls-1" d="m247.46,735.17c.53,6.75,3.42,12.57,8.75,16.97,5.81,4.78,12.64,6.42,20.02,6.59,2.39-.26,4.78-.44,7.15-.79,20.78-3.07,34.87-22.96,30.75-43.54-1.34-6.68-4.72-12.33-10.73-15.73-12.72-7.2-25.66-6.22-37.89.9-13.46,7.83-19.26,20.16-18.06,35.61Zm24.27-29.41c4.03-6.77,11.41-7.06,15.91-.55,4.63,6.69,5.95,14.38,6.44,22.28.34,5.53.03,10.99-2,16.21-.64,1.65-1.52,3.26-2.59,4.67-3.49,4.6-9.14,5-13.3,1-3.83-3.68-5.61-8.49-6.73-13.46-.99-4.4-1.34-8.95-1.68-11.33.17-7.98.88-13.67,3.94-18.81Z"/><path class="cls-1" d="m509.98,696.02c-7.48-2.7-15.08-2.55-22.73-.64-16.03,4-28.48,18.93-27.94,35.68v1.03c-.01,11.79,5.87,20.47,16.89,24.54,6.77,2.5,13.77,2.47,20.75,1.04,7.97-1.64,14.79-5.45,20.28-11.5,7.14-7.87,10.33-17.22,9.45-27.7-.91-10.76-6.22-18.65-16.7-22.44Zm-5.23,45.4c-.64,2.52-1.97,5.03-3.53,7.13-3.32,4.46-8.93,4.74-13,.91-3.82-3.59-5.61-8.33-6.76-13.23-1.04-4.46-1.43-9.07-1.84-11.8.28-7.75.93-13.54,4.05-18.73,4.03-6.68,11.36-7.01,15.78-.62,1.28,1.85,2.47,3.85,3.23,5.95,3.57,9.91,4.7,20.07,2.06,30.38Z"/><path class="cls-1" d="m576.08,708.19c-1.91,2.79-1.15,6.65,1.59,8.37,2.61,1.64,6.8,1.34,9.38-.44,4.89-3.36,5.18-11.99.98-16.38-2.87-3-6.33-4.77-10.27-5.75-6.41-1.59-12.87-1.39-19.21.14-6.2,1.5-11.78,4.28-15.56,9.74-4.66,6.74-5.05,17.04,3.32,22.4,3.46,2.21,7.25,3.9,10.91,5.77,4.22,2.15,8.69,3.9,12.65,6.44,4.85,3.12,4.68,8.1.02,11.5-4.67,3.4-10,4.24-15.51,3.21-2.75-.51-5.55-1.57-7.94-3.02-2.26-1.37-2.18-3.4-.48-5.48.74-.91,1.58-1.73,2.29-2.66,2.89-3.78,1.55-8.97-2.67-10.41-3.54-1.2-8.32.26-10.61,3.25-5.12,6.7-2.86,15.67,5.01,19.86,5.81,3.09,12.07,4.06,18.6,4.13,3.34-.38,6.72-.54,10-1.19,6.84-1.34,12.94-4.16,17.47-9.71,6.1-7.48,6.41-20.81-5.47-25.99-2.02-.88-3.99-1.85-6-2.75-4.83-2.15-9.73-4.16-14.47-6.49-2.4-1.18-4.25-3.09-4.18-6.13.07-2.97,1.78-4.88,4.24-6.12,5.5-2.79,11.22-3.08,16.96-.84,3,1.17,3.38,3.43,1.25,5.86-.77.88-1.62,1.7-2.28,2.66Z"/><path class="cls-1" d="m449.33,732.69c-.11-.94-1.34-2.27-2.26-2.46-1.38-.3-2.35.89-2.58,2.36-.46,2.84-.81,5.71-1.35,8.53-.53,2.74-1.49,5.32-3.67,7.23-2.79,2.44-7.08,2.02-8.52-1.06-.66-1.4-.88-3.24-.65-4.79.97-6.66,2.14-13.3,3.3-19.93,1.08-6.16,2.28-12.3,3.38-18.46.36-1.98,1.55-2.81,3.45-2.82,2.48-.01,4.96,0,7.44,0,2.2,0,4.41.02,6.61-.01.89-.01,1.88.08,2.64-.26.76-.35,1.65-1.11,1.82-1.84.11-.5-.84-1.33-1.45-1.88-.31-.28-.89-.32-1.36-.39-4.69-.7-9.38-1.38-14.07-2.07-2.25-.33-3.03-1.27-2.67-3.51.52-3.25,1.16-6.49,1.74-9.74.55-3.05,1.2-6.08,1.55-9.15.1-.88-.45-2.32-1.14-2.7-1.13-.63-2.43-.04-3.14,1.2-.48.83-.82,1.74-1.28,2.59-2.11,3.85-3.98,7.87-6.42,11.5-3.93,5.85-10.09,8.49-16.59,10.45-1.84.55-3.7,1.1-5.4,1.96-.66.33-1.35,1.61-1.2,2.28.14.64,1.3,1.36,2.1,1.48,1.62.24,3.3.1,4.95.13,1.56.03,2.3.89,2.15,2.38-.12,1.22-.44,2.43-.66,3.65-1.9,10.34-3.99,20.66-5.62,31.04-1.22,7.79-.02,13.7,5.75,17.1,7.88,4.64,16.25,4.38,24.17-.17,7.65-4.39,9.81-15.77,8.99-22.63Z"/><path class="cls-1" d="m269.54,685.68c7.87,1.3,15.23-4.93,15.25-12.9.01-4.93-2.55-8.52-6.96-9.75-6.89-1.92-14.85,2.9-16.36,9.89-1.3,6.05,2.34,11.81,8.07,12.75Z"/><path class="cls-1" d="m512.63,685.74c7.46,0,13.36-5.75,13.37-13.04,0-5.84-4.18-10.09-9.93-10.09-7.49,0-13.74,5.98-13.69,13.09.05,5.82,4.35,10.04,10.25,10.04Z"/><path class="cls-1" d="m314.09,672.72c.02-5.8-4.22-10.11-9.94-10.11-7.47,0-13.81,6.04-13.73,13.07.06,5.9,4.41,10.07,10.48,10.06,7.28-.02,13.17-5.83,13.2-13.03Z"/><path class="cls-1" d="m489.71,663.03c-6.82-1.89-14.66,2.81-16.26,9.74-1.42,6.14,2.22,12.09,8.06,12.9,9.3,1.29,15.82-6.6,15.17-12.92,0-4.96-2.52-8.48-6.97-9.71Z"/></svg>